HIERARCHY
ROOT Hips
{
  OFFSET -0.316068 0.00 -4.26057
  CHANNELS 6 Xposition Yposition Zposition Zrotation Xrotation Yrotation
  JOINT LHipJoint
  {
    OFFSET 0 0 0
    CHANNELS 3 Zrotation Xrotation Yrotation
    JOINT LeftUpLeg
    {
      OFFSET 1.8 -1.4 0.085
      CHANNELS 3 Zrotation Xrotation Yrotation
      JOINT LeftLeg
      {
        OFFSET 2.215 -6 0
        CHANNELS 3 Zrotation Xrotation Yrotation
        JOINT LeftFoot
        {
          OFFSET 2.5 -6.9 0
          CHANNELS 3 Zrotation Xrotation Yrotation
          JOINT LeftToeBase
          {
            OFFSET 0.2 -0.5 1.95
            CHANNELS 3 Zrotation Xrotation Yrotation
            End Site
            {
              OFFSET 0 0 1
            }
          }
        }
      }
    }
  }
  JOINT RHipJoint
  {
    OFFSET 0 0 0
    CHANNELS 3 Zrotation Xrotation Yrotation
    JOINT RightUpLeg
    {
      OFFSET -1.8 -1.4 0.085
      CHANNELS 3 Zrotation Xrotation Yrotation
      JOINT RightLeg
      {
        OFFSET -2.215 -6 0
        CHANNELS 3 Zrotation Xrotation Yrotation
        JOINT RightFoot
        {
          OFFSET -2.5 -6.9 0
          CHANNELS 3 Zrotation Xrotation Yrotation
          JOINT RightToeBase
          {
            OFFSET -0.2 -0.5 1.95
            CHANNELS 3 Zrotation Xrotation Yrotation
            End Site
            {
              OFFSET 0 0 1
            }
          }
        }
      }
    }
  }
  JOINT LowerBack
  {
    OFFSET 0 0 0
    CHANNELS 3 Zrotation Xrotation Yrotation
    JOINT Spine
    {
      OFFSET -0.087 1.94 -0.2889
      CHANNELS 3 Zrotation Xrotation Yrotation
      JOINT Spine1
      {
        OFFSET 0 1.95 0.06
        CHANNELS 3 Zrotation Xrotation Yrotation
        JOINT Neck
        {
          OFFSET 0 0 0
          CHANNELS 3 Zrotation Xrotation Yrotation
          JOINT Neck1
          {
            OFFSET 0 1.6 0.34
            CHANNELS 3 Zrotation Xrotation Yrotation
            JOINT Head
            {
              OFFSET 0 1.667 -0.24
              CHANNELS 3 Zrotation Xrotation Yrotation
              End Site
              {
                OFFSET 0 1.686 -0.12
              }
            }
          }
        }
        JOINT LeftShoulder
        {
          OFFSET 0 0 0
          CHANNELS 3 Zrotation Xrotation Yrotation
          JOINT LeftArm
          {
            OFFSET 2.7 1.55 -0.73
            CHANNELS 3 Zrotation Xrotation Yrotation
            JOINT LeftForeArm
            {
              OFFSET 5.45 0 0
              CHANNELS 3 Zrotation Xrotation Yrotation
              JOINT LeftHand
              {
                OFFSET 3.45 0 0
                CHANNELS 3 Zrotation Xrotation Yrotation
                JOINT LeftFingerBase
                {
                  OFFSET 0 0 0
                  CHANNELS 3 Zrotation Xrotation Yrotation
                  JOINT LeftHandIndex1
                  {
                    OFFSET 0.75 0 0
                    CHANNELS 3 Zrotation Xrotation Yrotation
                    End Site
                    {
                      OFFSET 0.6 0 0
                    }
                  }
                }
                JOINT LThumb
                {
                  OFFSET 0 0 0
                  CHANNELS 3 Zrotation Xrotation Yrotation
                  End Site
                  {
                    OFFSET 0.59 0 0.59
                  }
                }
              }
            }
          }
        }
        JOINT RightShoulder
        {
          OFFSET 0 0 0
          CHANNELS 3 Zrotation Xrotation Yrotation
          JOINT RightArm
          {
            OFFSET -2.7 1.55 -0.73
            CHANNELS 3 Zrotation Xrotation Yrotation
            JOINT RightForeArm
            {
              OFFSET -5.45 0 0
              CHANNELS 3 Zrotation Xrotation Yrotation
              JOINT RightHand
              {
                OFFSET -3.45 0 0
                CHANNELS 3 Zrotation Xrotation Yrotation
                JOINT RightFingerBase
                {
                  OFFSET 0 0 0
                  CHANNELS 3 Zrotation Xrotation Yrotation
                  JOINT RightHandIndex1
                  {
                    OFFSET -0.75 0 0
                    CHANNELS 3 Zrotation Xrotation Yrotation
                    End Site
                    {
                      OFFSET -0.6 0 0
                    }
                  }
                }
                JOINT RThumb
                {
                  OFFSET 0 0 0
                  CHANNELS 3 Zrotation Xrotation Yrotation
                  End Site
                  {
                    OFFSET -0.59 0 0.59
                  }
                }
              }
            }
          }
        }
      }
    }
  }
}
MOTION
Frames:	9
Frame Time:	0.00833333
-0.316037 18.5043 -4.26051 -0.00121297 0.00151833 -0.00171902 3.67819e-019 -1.94126e-019 -0 -17.2225 -5.01672 2.00464 3.52491 3.03964 20.3063 -2.25595 2.93133 -22.4934 5.2179e-015 -1.5061e-014 1.00659e-013 3.67819e-019 -1.94126e-019 -0 19.9563 -1.16252 0.0872238 0.0701588 4.15428 -1.19354 0.466131 -2.98733 1.13099 -2.67334e-015 3.88251e-019 -0 3.67819e-019 -1.94126e-019 -0 0.000747706 0.00160707 0.000702385 -0.00343712 -0.00410664 0.00133983 0.00219775 -16.0026 -0.000907626 0.00269351 20.9974 -0.00162105 -0.000816965 11.0073 -0.000684266 0.341404 -0.000693488 3.49001 -14.9283 -39.238 -17.6064 -9.60354 40.5535 9.15404e-005 5.36212 0.51832 3.35144 1.33602e-008 -1.43472e-007 8.42808e-007 2.23633e-015 0 -0 2.01269e-015 -4.96962e-017 1.59028e-015 -0.297981 -0.00356513 -3.48132 42.3828 -52.4857 36.3098 -1.74843 38.389 -0.00307514 -0.540231 -2.29494 -10.0882 -5.6677e-008 -1.65658e-006 2.25111e-007 1.42398e-007 1.71286e-006 1.89034e-007 -7.95139e-015 0 7.95139e-016 
-0.315932 18.5036 -4.26028 -0.00644541 0.00675792 -0.00910516 1.30447e-018 0 -3.10601e-018 -17.2201 -5.03419 2.00135 3.52312 3.06237 20.3257 -2.25308 2.90325 -22.4836 3.73693e-015 -1.50642e-014 1.00656e-013 1.30447e-018 0 -3.10601e-018 19.9607 -1.11448 0.0656033 0.0699122 4.10389 -1.16183 0.460377 -3.00273 1.13452 -5.77646e-015 0 -1.55301e-018 1.30447e-018 0 -3.10601e-018 0.00509455 0.00967053 0.00365141 -0.0196947 -0.0216411 0.00726629 0.0126271 -16.0127 -0.00493974 0.0153691 20.9873 -0.00901852 -0.00570511 11.0366 -0.0028181 0.341404 -0.000693488 3.49001 -14.8968 -39.2328 -17.5974 -9.61815 40.5543 9.15414e-005 5.25478 0.534326 3.26421 1.33602e-008 -1.43472e-007 8.42808e-007 9.19379e-016 -2.48481e-016 -1.59028e-015 3.10601e-016 -9.93923e-017 -4.77083e-015 -0.297981 -0.00356513 -3.48132 42.3838 -52.4907 36.3014 -1.75926 38.3755 0.000346621 -0.514998 -2.29534 -10.0838 -5.6677e-008 -1.65658e-006 2.25111e-007 1.42398e-007 1.71286e-006 1.89034e-007 -1.98785e-015 -3.18055e-015 7.95139e-016 
-0.315831 18.5028 -4.26006 -0.0117376 0.0118641 -0.0165729 2.37273e-018 0 6.21202e-018 -17.2175 -5.05173 1.99811 3.52123 3.08561 20.345 -2.25073 2.87452 -22.4733 2.65899e-015 -1.50517e-014 1.00653e-013 2.37273e-018 0 6.21202e-018 19.9652 -1.06577 0.0436647 0.0697193 4.05305 -1.12992 0.45464 -3.01863 1.1382 1.88341e-016 6.21202e-018 -4.65902e-018 2.37273e-018 0 6.21202e-018 0.00965757 0.0179956 0.00662276 -0.0363504 -0.0393529 0.0132835 0.0233172 -16.0228 -0.0090365 0.0283463 20.9772 -0.0165612 -0.0108506 11.0659 -0.00485578 0.341404 -0.000693488 3.49001 -14.865 -39.2275 -17.5885 -9.63284 40.5553 9.15428e-005 5.14618 0.550534 3.17559 1.33602e-008 -1.43472e-007 8.42808e-007 4.96962e-017 1.98785e-016 1.59028e-015 1.73937e-016 9.93923e-017 1.59028e-015 -0.297981 -0.00356513 -3.48132 42.3853 -52.4957 36.2929 -1.77054 38.3623 0.00389156 -0.489977 -2.29567 -10.079 -5.6677e-008 -1.65658e-006 2.25111e-007 1.42398e-007 1.71286e-006 1.89034e-007 2.78299e-015 3.18055e-015 -0 
-0.315695 18.5022 -4.25982 -0.0163567 0.0184377 -0.0231429 -4.81826e-018 -6.21202e-018 -0 -17.2162 -5.06844 1.99437 3.52033 3.10311 20.3643 -2.24264 2.8529 -22.4684 9.63094e-016 -1.50642e-014 1.00647e-013 -4.81826e-018 -6.21202e-018 -0 19.9689 -1.02448 0.0252345 0.0696034 4.00715 -1.10024 0.448728 -3.02908 1.14025 7.76252e-015 6.21202e-018 -0 -4.81826e-018 -6.21202e-018 -0 0.0118328 0.0234428 0.00934861 -0.0485839 -0.0551147 0.0183025 0.031121 -16.0334 -0.0124272 0.0379717 20.9666 -0.0224947 -0.0131381 11.095 -0.00795636 0.341404 -0.000693488 3.49001 -14.8359 -39.2218 -17.5789 -9.64681 40.5542 9.15413e-005 5.05205 0.564544 3.10234 1.33602e-008 -1.43472e-007 8.42808e-007 -2.98177e-016 -2.98177e-016 -0 7.45443e-016 1.98785e-016 -0 -0.297981 -0.00356513 -3.48132 42.3819 -52.5011 36.2853 -1.77688 38.3464 0.00606638 -0.462623 -2.29681 -10.0796 -5.6677e-008 -1.65658e-006 2.25111e-007 1.42398e-007 1.71286e-006 1.89034e-007 -3.57812e-015 -6.36111e-015 7.95139e-016 
-0.315484 18.502 -4.25954 -0.0195452 0.0282922 -0.0277823 1.13139e-018 0 -0 -17.2176 -5.08342 1.98955 3.52158 3.10819 20.3835 -2.22226 2.84644 -22.4748 7.02048e-015 -1.50642e-014 1.0066e-013 1.13139e-018 0 -0 19.9708 -0.998753 0.0141684 0.0695566 3.97129 -1.0752 0.442304 -3.02787 1.13881 2.4622e-015 0 -3.10601e-018 1.13139e-018 0 -0 0.00900696 0.0224084 0.0115619 -0.0515526 -0.0664079 0.0212311 0.0328242 -16.0449 -0.0143254 0.0405147 20.9551 -0.0250283 -0.00929477 11.1238 -0.0133211 0.341404 -0.000693488 3.49001 -14.8126 -39.2151 -17.5676 -9.65943 40.5485 9.15334e-005 4.98802 0.573967 3.06136 1.33602e-008 -1.43472e-007 8.42808e-007 2.06239e-015 -9.93923e-017 -0 -8.44835e-016 -1.98785e-016 -3.18055e-015 -0.297981 -0.00356513 -3.48132 42.3679 -52.5075 36.2795 -1.77268 38.3244 0.00536148 -0.430268 -2.29969 -10.0917 -5.6677e-008 -1.65658e-006 2.25111e-007 1.42398e-007 1.71286e-006 1.89034e-007 7.95139e-016 -3.18055e-015 -7.95139e-016 
-0.315139 18.5022 -4.25917 -0.0205968 0.0454006 -0.0292335 -6.33942e-019 6.21202e-018 -1.2424e-017 -17.2235 -5.09697 1.98254 3.52609 3.09146 20.4044 -2.18209 2.86292 -22.4987 2.13735e-015 -1.5061e-014 1.00647e-013 -6.33942e-019 6.21202e-018 -1.2424e-017 19.9706 -0.992848 0.0126199 0.0693696 3.94328 -1.05607 0.433091 -3.00807 1.13157 -4.18881e-016 6.21202e-018 -0 -6.33942e-019 6.21202e-018 -1.2424e-017 -0.000129499 0.00638287 0.0131553 -0.0427436 -0.0662854 0.0215345 0.0259888 -16.0598 -0.0141495 0.0331525 20.9402 -0.0228201 0.00444584 11.1568 -0.0221059 0.341404 -0.000693488 3.49001 -14.7968 -39.2055 -17.5538 -9.67263 40.5317 9.15106e-005 4.95998 0.577903 3.06169 1.33602e-008 -1.43472e-007 8.42808e-007 7.95139e-016 -9.93923e-017 -0 3.72721e-016 0 -0 -0.297981 -0.00356513 -3.48132 42.3367 -52.5151 36.2731 -1.75258 38.2858 0.000849664 -0.3899 -2.30492 -10.121 -5.6677e-008 -1.65658e-006 2.25111e-007 1.42398e-007 1.71286e-006 1.89034e-007 3.18055e-015 0 -7.95139e-016 
-0.314735 18.5026 -4.25877 -0.0205492 0.0652484 -0.0291721 1.09196e-018 -2.48481e-017 -0 -17.2315 -5.10931 1.97464 3.53229 3.06489 20.4253 -2.1323 2.89108 -22.5314 -3.82776e-015 -1.5063e-014 1.00647e-013 1.09196e-018 -2.48481e-017 -0 19.9691 -0.998595 0.0165979 0.0691926 3.92234 -1.04042 0.423306 -2.9792 1.12158 2.05912e-015 0 1.2424e-017 1.09196e-018 -2.48481e-017 -0 -0.013004 -0.0151151 0.0143679 -0.027001 -0.0622907 0.0202761 0.0145163 -16.0756 -0.0128397 0.0204102 20.9244 -0.01803 0.0229787 11.1901 -0.0326372 0.341404 -0.000693488 3.49001 -14.7854 -39.1951 -17.5387 -9.68502 40.511 9.14823e-005 4.95425 0.578437 3.08619 1.33602e-008 -1.43472e-007 8.42808e-007 2.48481e-017 -9.93923e-017 -1.59028e-015 9.19379e-016 -1.98785e-016 -0 -0.297981 -0.00356513 -3.48132 42.2972 -52.5235 36.2678 -1.72437 38.2419 -0.00582274 -0.345645 -2.31145 -10.1592 -5.6677e-008 -1.65658e-006 2.25111e-007 1.42398e-007 1.71286e-006 1.89034e-007 -5.1684e-015 -6.36111e-015 -0 
-0.314384 18.5031 -4.25839 -0.0208683 0.0805758 -0.0300806 -5.57505e-018 0 -1.2424e-017 -17.2381 -5.12033 1.96792 3.53787 3.04661 20.4436 -2.08789 2.91489 -22.5605 2.6588e-015 -1.50673e-014 1.00666e-013 -5.57505e-018 0 -1.2424e-017 19.9673 -1.0057 0.0210089 0.069324 3.91001 -1.02518 0.416829 -2.95515 1.11342 -5.56133e-015 -4.65902e-018 1.2424e-017 -5.57505e-018 0 -1.2424e-017 -0.0264105 -0.0266495 0.0154838 -0.0104099 -0.0668547 0.0187746 0.00370969 -16.0884 -0.0116683 0.00843332 20.9116 -0.0135857 0.038799 11.2162 -0.0425319 0.341404 -0.000693488 3.49001 -14.7741 -39.1868 -17.5243 -9.69375 40.4979 9.14645e-005 4.9548 0.578008 3.11321 1.33602e-008 -1.43472e-007 8.42808e-007 3.72721e-016 9.93923e-017 -0 -0 -9.93923e-017 -0 -0.297981 -0.00356513 -3.48132 42.2629 -52.5317 36.2668 -1.69915 38.2111 -0.0125203 -0.303534 -2.31791 -10.1945 -5.6677e-008 -1.65658e-006 2.25111e-007 1.42398e-007 1.71286e-006 1.89034e-007 1.98785e-015 0 -0 
-0.314198 18.5032 -4.25811 -0.0229869 0.0841214 -0.0344334 5.39305e-018 -2.48481e-017 1.2424e-017 -17.2398 -5.13005 1.96436 3.54057 3.0548 20.4568 -2.0632 2.91863 -22.5738 2.81476e-016 -1.50642e-014 1.00666e-013 5.39305e-018 -2.48481e-017 1.2424e-017 19.9659 -1.00468 0.0210786 0.0700883 3.90878 -1.0075 0.417614 -2.94965 1.11161 -1.93017e-015 -6.21202e-018 1.2424e-017 5.39305e-018 -2.48481e-017 1.2424e-017 -0.0372769 -0.0127282 0.016774 0.00115515 -0.0924988 0.0183002 -0.00124757 -16.094 -0.0118772 0.00322587 20.906 -0.0123467 0.044435 11.2276 -0.049429 0.341404 -0.000693488 3.49001 -14.7592 -39.1837 -17.5124 -9.69571 40.5043 9.14732e-005 4.94644 0.578932 3.12188 1.33602e-008 -1.43472e-007 8.42808e-007 5.71506e-016 2.98177e-016 1.59028e-015 2.38542e-015 9.93923e-017 1.59028e-015 -0.297981 -0.00356513 -3.48132 42.2469 -52.5389 36.2733 -1.68775 38.2124 -0.017211 -0.269806 -2.32294 -10.2152 -5.6677e-008 -1.65658e-006 2.25111e-007 1.42398e-007 1.71286e-006 1.89034e-007 4.37326e-015 -3.18055e-015 7.95139e-016 
